<svg width="38" height="42" viewBox="0 0 38 42" fill="none" xmlns="http://www.w3.org/2000/svg">
<g clip-path="url(#clip0_561_704)">
<path d="M32.0069 11.2084C35.3169 11.2084 38.0001 8.69931 38.0001 5.6042C38.0001 2.50908 35.3169 0 32.0069 0C28.6969 0 26.0137 2.50908 26.0137 5.6042C26.0137 8.69931 28.6969 11.2084 32.0069 11.2084Z" fill="white"/>
<path d="M26.0321 18.6414C26.0321 18.5099 26.0137 18.3676 26.0137 18.2444V18.6414H26.0321Z" fill="url(#paint0_linear_561_704)"/>
<path d="M13.0078 12.632V30.3152C13.0053 33.3323 14.252 36.2331 16.4867 38.4095C18.7213 40.5859 21.7703 41.8687 24.9943 41.989V23.3476C24.8521 21.744 24.3535 20.1858 23.5304 18.7728C22.4987 16.9821 20.9855 15.474 19.1402 14.3971C17.295 13.3202 15.1813 12.7118 13.0078 12.632V12.632Z" fill="white"/>
<path d="M0 24.3058V36.4122C0 37.8985 0.631427 39.3239 1.75537 40.3749C2.87932 41.4259 4.40372 42.0164 5.99322 42.0164C7.58272 42.0164 9.10712 41.4259 10.2311 40.3749C11.355 39.3239 11.9864 37.8985 11.9864 36.4122C11.9864 36.2698 11.9864 36.1384 11.9659 35.9905H11.9864V12.632C8.76442 12.7576 5.71881 14.0421 3.48536 16.2173C1.25191 18.3925 0.00323852 21.2903 0 24.3058H0Z" fill="white"/>
<path d="M26.0312 18.6416H26.0137V41.9892C29.2369 41.8669 32.2846 40.5834 34.5188 38.4075C36.753 36.2316 38.0005 33.3319 38.0001 30.3154V18.2446C38.0001 16.7583 37.3687 15.3328 36.2447 14.2818C35.1208 13.2308 33.5964 12.6404 32.0069 12.6404C30.4174 12.6404 28.893 13.2308 27.769 14.2818C26.6451 15.3328 26.0137 16.7583 26.0137 18.2446C26.0137 18.3787 26.0195 18.5101 26.0312 18.6416Z" fill="white"/>
</g>
<defs>
<linearGradient id="paint0_linear_561_704" x1="6.44523" y1="42.605" x2="25.359" y2="13.2972" gradientUnits="userSpaceOnUse">
<stop stop-color="#294FCD"/>
<stop offset="1" stop-color="#1E90FF"/>
</linearGradient>
<clipPath id="clip0_561_704">
<rect width="38" height="42" fill="white"/>
</clipPath>
</defs>
</svg>
