<svg width="13" height="13" viewBox="0 0 13 13" fill="none" xmlns="http://www.w3.org/2000/svg">
<path d="M6.12372 11.2022C8.96318 11.2022 11.265 10.0624 11.265 8.65628C11.265 7.2502 8.96318 6.11035 6.12372 6.11035C3.28426 6.11035 0.982422 7.2502 0.982422 8.65628C0.982422 10.0624 3.28426 11.2022 6.12372 11.2022Z" fill="#EAEBEF"/>
<path d="M10.0003 6.98584C10.7869 7.43392 11.265 8.00421 11.265 8.66106C11.265 10.0664 8.96172 11.207 6.12372 11.207C3.28572 11.207 0.982422 10.0664 0.982422 8.66106C0.982422 8.01949 1.46055 7.43392 2.25231 6.98584" stroke="#294FCD" stroke-width="1.2" stroke-linejoin="round"/>
<path d="M3.04102 4.07367C3.04102 3.26341 3.36613 2.48632 3.94463 1.91338C4.52314 1.34043 5.30766 1.01855 6.12579 1.01855C6.94393 1.01855 7.72857 1.34043 8.30708 1.91338C8.88559 2.48632 9.21057 3.26341 9.21057 4.07367C9.21057 7.15934 6.12579 8.65635 6.12579 8.65635C6.12579 8.65635 3.04102 7.15934 3.04102 4.07367Z" fill="#EAEBEF" stroke="#294FCD" stroke-width="1.2" stroke-miterlimit="10"/>
<path d="M6.12396 4.83753C6.69186 4.83753 7.15222 4.38159 7.15222 3.81915C7.15222 3.25672 6.69186 2.80078 6.12396 2.80078C5.55607 2.80078 5.0957 3.25672 5.0957 3.81915C5.0957 4.38159 5.55607 4.83753 6.12396 4.83753Z" fill="#294FCD"/>
</svg>
