<svg width="14" height="14" viewBox="0 0 14 14" fill="none" xmlns="http://www.w3.org/2000/svg">
<path d="M5.65209 8.39874C6.09954 8.84008 6.57747 9.25003 7.08243 9.6256C7.30554 9.79514 7.57581 9.89273 7.85675 9.90517C8.13769 9.91761 8.41571 9.84431 8.65322 9.69518L8.99166 9.48647C9.23499 9.32157 9.52473 9.23707 9.81946 9.24502C10.1142 9.25297 10.3989 9.35297 10.6328 9.53074L12.2227 10.7956C12.2987 10.8549 12.361 10.9296 12.4056 11.0146C12.4502 11.0996 12.4761 11.193 12.4815 11.2887C12.4869 11.3843 12.4718 11.48 12.4371 11.5694C12.4024 11.6589 12.3488 11.74 12.2801 11.8074V11.839C11.6674 12.4425 10.8803 12.8422 10.0279 12.9827C9.17549 13.1232 8.30004 12.9976 7.52298 12.6232C6.20801 11.9808 5.01027 11.1259 3.97904 10.0936C2.93291 9.0755 2.06921 7.88862 1.42486 6.58374C1.04302 5.81501 0.914148 4.94709 1.05617 4.10199C1.1982 3.2569 1.60397 2.47714 2.21665 1.87235C2.28573 1.80451 2.36863 1.7519 2.45969 1.71799C2.55075 1.68409 2.64804 1.66966 2.74513 1.67563C2.84223 1.6816 2.93681 1.70785 3.02294 1.75265C3.10906 1.79746 3.18471 1.85979 3.24477 1.93557L4.52186 3.50394C4.69921 3.72532 4.80256 3.99594 4.81744 4.27816C4.83231 4.56037 4.75806 4.84015 4.60495 5.07862L4.35583 5.4644C4.207 5.70022 4.13408 5.97525 4.14662 6.25307C4.15917 6.53089 4.25665 6.79838 4.42614 7.0201C4.8041 7.52307 5.22033 7.99664 5.67127 8.43668L5.65209 8.39874Z" fill="#EAEBEF" stroke="#294FCD" stroke-width="1.2" stroke-miterlimit="10"/>
<path d="M10.3699 6.05964C10.3699 5.44074 10.1217 4.84719 9.67987 4.40956C9.23799 3.97193 8.63858 3.72607 8.01367 3.72607" stroke="#294FCD" stroke-width="1.2" stroke-miterlimit="10"/>
<path d="M13.122 6.05923C13.122 4.71744 12.5839 3.4306 11.6259 2.48181C10.6679 1.53302 9.36849 1 8.01367 1" stroke="#294FCD" stroke-width="1.2" stroke-miterlimit="10"/>
</svg>
