<svg width="61" height="61" viewBox="0 0 61 61" fill="none" xmlns="http://www.w3.org/2000/svg">
<g clip-path="url(#clip0_308_1923)">
<path d="M18.6748 58.2281C17.5015 58.2281 15.7887 57.6535 11.9838 53.3954C10.0501 51.2312 8.46525 49.1021 8.39877 49.0125C8.35397 48.9521 8.31334 48.8891 8.27689 48.8235C7.55334 47.521 7.1709 46.045 7.1709 44.555V33.726C7.1709 32.7818 7.93626 32.0164 8.88057 32.0164H22.7099C24.6905 32.0164 26.5587 32.7814 27.9706 34.1707L35.0515 41.1386C36.0502 42.1373 36.5949 43.4522 36.5949 44.8509C36.5949 46.2497 36.0502 47.5646 35.0612 48.5536C33.008 50.6065 29.6862 50.6065 27.6443 48.5649L20.5709 41.4913C19.8682 41.486 18.7266 41.4807 17.8147 41.4766L16.5256 41.4704C15.5814 41.4654 14.8199 40.6961 14.8249 39.7519C14.8299 38.8109 15.5942 38.0512 16.5343 38.0512C16.5374 38.0512 16.5403 38.0512 16.5434 38.0512L17.8303 38.0574C18.6393 38.061 19.5049 38.0651 20.1693 38.0692C20.5046 38.0715 20.7891 38.0735 20.9903 38.0759C21.488 38.0815 22.0024 38.0872 22.4985 38.5833L30.0623 46.1471C30.7707 46.8557 31.9238 46.8557 32.6321 46.1471C32.9866 45.7925 33.1757 45.3362 33.1757 44.8508C33.1757 44.3654 32.9867 43.9091 32.6435 43.566L25.5721 36.6078C24.804 35.852 23.7874 35.4357 22.7096 35.4357H10.5901V44.555C10.5901 45.4291 10.8055 46.2954 11.214 47.0674C11.5255 47.4806 12.8325 49.1951 14.3675 50.9304C17.4027 54.3613 18.5626 54.7677 18.7166 54.8089L37.2012 54.8053C38.4613 54.8053 39.9298 54.1455 41.326 53.4697C42.5047 52.8995 51.2545 46.9644 56.493 43.3574C56.5216 43.3377 56.5508 43.3189 56.5806 43.3009C57.5575 42.7125 57.8737 41.4386 57.2853 40.4614C57.0004 39.9882 56.548 39.6544 56.0117 39.5212C55.4855 39.3906 54.9406 39.4685 54.4734 39.7406L41.7034 48.2094C40.9164 48.7311 39.8555 48.5163 39.3336 47.7295C38.8119 46.9426 39.0267 45.8818 39.8135 45.3598L52.6192 36.8674C52.6399 36.8537 52.6608 36.8404 52.6821 36.8277C55.2746 35.2665 58.6533 36.1054 60.2145 38.6975C61.7656 41.2736 60.9469 44.6267 58.3932 46.2005C56.8092 47.2908 44.6005 55.6837 42.8157 56.5475C41.0624 57.396 39.1847 58.2245 37.2016 58.2245L18.6759 58.2281C18.6754 58.2281 18.6749 58.2281 18.6748 58.2281Z" fill="#2242AA"/>
<path d="M11.7347 31.6262H1.70947V54.2138H11.7347V31.6262Z" fill="#CEE8FA"/>
<path d="M11.7342 55.9226H1.70967C0.765482 55.9226 0 55.1573 0 54.2129V31.6261C0 30.6819 0.765362 29.9164 1.70967 29.9164H11.7342C12.6784 29.9164 13.4439 30.6817 13.4439 31.6261V54.2129C13.4439 55.1571 12.6784 55.9226 11.7342 55.9226ZM3.41923 52.5033H10.0245V33.3356H3.41923V52.5033Z" fill="#2242AA"/>
<path d="M32.5299 28.2926C25.4939 28.2926 19.7695 22.5685 19.7695 15.5322C19.7695 8.49598 25.4938 2.77185 32.5299 2.77185C39.566 2.77185 45.2903 8.4961 45.2903 15.5322C45.2903 22.5683 39.5659 28.2926 32.5299 28.2926ZM32.5299 6.19132C27.3793 6.19132 23.1889 10.3816 23.1889 15.5323C23.1889 20.683 27.3792 24.8734 32.5299 24.8734C37.6806 24.8734 41.8709 20.683 41.8709 15.5323C41.8709 10.3816 37.6805 6.19132 32.5299 6.19132Z" fill="#2242AA"/>
<path d="M41.5711 35.102C47.6744 35.102 52.6221 30.1543 52.6221 24.0509C52.6221 17.9476 47.6744 12.9999 41.5711 12.9999C35.4677 12.9999 30.52 17.9476 30.52 24.0509C30.52 30.1543 35.4677 35.102 41.5711 35.102Z" fill="#CEE8FA"/>
<path d="M41.5724 36.8109C34.5364 36.8109 28.812 31.0868 28.812 24.0505C28.812 17.0143 34.5363 11.2903 41.5724 11.2903C48.6085 11.2903 54.3328 17.0144 54.3328 24.0507C54.3328 31.0869 48.6084 36.8109 41.5724 36.8109ZM41.5724 14.7095C36.4218 14.7095 32.2314 18.8998 32.2314 24.0505C32.2314 29.2012 36.4217 33.3916 41.5724 33.3916C46.7231 33.3916 50.9134 29.2012 50.9134 24.0505C50.9134 18.8998 46.7231 14.7095 41.5724 14.7095Z" fill="#2242AA"/>
</g>
<path d="M44.2732 23.6423C44.7866 23.3807 45.1075 22.9196 45.0322 22.1522C44.931 21.103 44.0252 20.7517 42.8818 20.6521L42.8812 19.3839C42.8815 19.3799 42.8836 19.3764 42.8836 19.3722C42.8836 19.2754 42.8052 19.1972 42.7085 19.197H42.1748C42.0782 19.1972 41.9998 19.2754 41.9998 19.372H41.9957L41.9964 20.6141C41.7635 20.6141 41.5255 20.6187 41.2891 20.6236L41.2887 19.3874C41.2891 19.3821 41.2918 19.3775 41.2918 19.372C41.2918 19.2753 41.2134 19.197 41.1167 19.1969H40.583C40.4864 19.197 40.408 19.2753 40.408 19.3719C40.408 19.3718 40.408 19.372 40.408 19.3719L40.4038 19.3723L40.4041 20.6523C40.2123 20.6563 40.024 20.6603 39.8403 20.6603L39.8401 20.6557H38.6185V20.6575C38.5218 20.6575 38.4434 20.7359 38.4434 20.8327V21.4243C38.4434 21.521 38.5218 21.5994 38.6185 21.5994C38.6182 21.5994 38.6188 21.5994 38.6185 21.5994L38.6192 21.602C38.6192 21.602 39.2733 21.5892 39.2624 21.6008C39.621 21.601 39.7379 21.8092 39.772 21.9888L39.7727 23.6468L39.7728 23.6531L39.7735 25.9753C39.7578 26.0881 39.6915 26.2683 39.4409 26.2687C39.4522 26.2787 38.797 26.2686 38.797 26.2686C38.7959 26.2686 38.7949 26.2687 38.7938 26.2687C38.7096 26.2687 38.6427 26.3292 38.6258 26.4083L38.6186 26.4079L38.4574 27.1315L38.4611 27.1322C38.4604 27.1387 38.4574 27.1443 38.4574 27.151C38.4574 27.244 38.5304 27.3183 38.622 27.324L38.6216 27.3267L39.7742 27.3263C39.9887 27.3263 40.1998 27.3298 40.407 27.331L40.408 28.6277C40.408 28.7243 40.4868 28.8027 40.5835 28.8027H41.1172C41.2138 28.8026 41.2922 28.7242 41.2922 28.6276L41.2919 27.3467C41.5348 27.3516 41.7699 27.3534 41.9995 27.3529L41.9998 28.6277C41.9999 28.7243 42.0786 28.8027 42.1752 28.8027H42.7089C42.8055 28.8026 42.8839 28.7242 42.8839 28.6276L42.885 28.6274L42.8847 27.3329C44.3736 27.2468 45.4158 26.8713 45.5446 25.4728C45.6485 24.3471 45.1186 23.8448 44.2732 23.6423ZM41.3101 21.6648C41.8101 21.6645 43.3806 21.5049 43.3812 22.5485C43.3813 23.5492 41.8106 23.433 41.3107 23.4333L41.3101 21.6648ZM41.3117 26.2757L41.3113 24.3257C41.9116 24.3257 43.7939 24.1523 43.7943 25.2994C43.7951 26.3992 41.912 26.2747 41.3117 26.2757Z" fill="#2242AA"/>
<defs>
<clipPath id="clip0_308_1923">
<rect width="61" height="61" fill="white"/>
</clipPath>
</defs>
</svg>
