<svg width="23" height="24" viewBox="0 0 23 24" fill="none" xmlns="http://www.w3.org/2000/svg">
<path d="M11.5005 8.75005C9.78034 8.75005 8.3859 10.2051 8.3859 12C8.3859 13.795 9.78034 15.25 11.5005 15.25C13.2206 15.25 14.6151 13.795 14.6151 12C14.6151 10.2051 13.2206 8.75005 11.5005 8.75005Z" fill="#294FCD"/>
<path fill-rule="evenodd" clip-rule="evenodd" d="M6.48795 3.08151C9.7924 2.69614 13.2086 2.69614 16.513 3.08151C18.3323 3.29369 19.7997 4.78947 20.0133 6.69452C20.4084 10.2195 20.4084 13.7806 20.0133 17.3056C19.7997 19.2106 18.3323 20.7064 16.513 20.9186C13.2086 21.304 9.79241 21.304 6.48795 20.9186C4.66866 20.7064 3.20126 19.2106 2.98773 17.3056C2.59263 13.7806 2.59263 10.2195 2.98773 6.69452C3.20126 4.78947 4.66866 3.29369 6.48795 3.08151ZM16.2921 6.00005C15.7629 6.00005 15.3338 6.44776 15.3338 7.00005C15.3338 7.55233 15.7629 8.00005 16.2921 8.00005C16.8214 8.00005 17.2505 7.55233 17.2505 7.00005C17.2505 6.44776 16.8214 6.00005 16.2921 6.00005ZM6.9484 12C6.9484 9.37669 8.98643 7.25005 11.5005 7.25005C14.0145 7.25005 16.0526 9.37669 16.0526 12C16.0526 14.6234 14.0145 16.75 11.5005 16.75C8.98643 16.75 6.9484 14.6234 6.9484 12Z" fill="#294FCD"/>
</svg>
