<svg width="17" height="18" viewBox="0 0 17 18" fill="none" xmlns="http://www.w3.org/2000/svg">
<path d="M8.86619 6.12481C7.28097 6.12481 5.99589 7.46575 5.99589 9.11989C5.99589 10.774 7.28097 12.115 8.86619 12.115C10.4514 12.115 11.7365 10.774 11.7365 9.11989C11.7365 7.46575 10.4514 6.12481 8.86619 6.12481Z" fill="white"/>
<path fill-rule="evenodd" clip-rule="evenodd" d="M4.24681 0.900885C7.29208 0.545734 10.4403 0.545734 13.4856 0.900885C15.1622 1.09642 16.5145 2.47487 16.7113 4.2305C17.0754 7.47903 17.0754 10.7608 16.7113 14.0093C16.5145 15.7649 15.1622 17.1434 13.4856 17.3389C10.4403 17.6941 7.29208 17.6941 4.24681 17.3389C2.57021 17.1434 1.21791 15.7649 1.02113 14.0093C0.657019 10.7608 0.657019 7.47903 1.02113 4.2305C1.21791 2.47487 2.57021 1.09642 4.24681 0.900885ZM13.282 3.5905C12.7943 3.5905 12.3989 4.0031 12.3989 4.51207C12.3989 5.02103 12.7943 5.43363 13.282 5.43363C13.7698 5.43363 14.1652 5.02103 14.1652 4.51207C14.1652 4.0031 13.7698 3.5905 13.282 3.5905ZM4.67114 9.11989C4.67114 6.7023 6.54933 4.74246 8.86619 4.74246C11.183 4.74246 13.0612 6.7023 13.0612 9.11989C13.0612 11.5375 11.183 13.4973 8.86619 13.4973C6.54933 13.4973 4.67114 11.5375 4.67114 9.11989Z" fill="white"/>
</svg>
