<svg width="23" height="23" viewBox="0 0 23 23" fill="none" xmlns="http://www.w3.org/2000/svg">
<path d="M4.55208 1.79688C3.42738 1.79688 2.51562 2.70863 2.51562 3.83333C2.51562 4.95804 3.42738 5.86979 4.55208 5.86979C5.67679 5.86979 6.58854 4.95804 6.58854 3.83333C6.58854 2.70863 5.67679 1.79688 4.55208 1.79688Z" fill="#294FCD"/>
<path d="M2.63542 7.54688C2.56926 7.54688 2.51562 7.60051 2.51562 7.66667V20.125C2.51562 20.1912 2.56926 20.2448 2.63542 20.2448H6.46875C6.53491 20.2448 6.58854 20.1912 6.58854 20.125V7.66667C6.58854 7.60051 6.53491 7.54688 6.46875 7.54688H2.63542Z" fill="#294FCD"/>
<path d="M8.86458 7.54688C8.79842 7.54688 8.74479 7.60051 8.74479 7.66667V20.125C8.74479 20.1912 8.79842 20.2448 8.86458 20.2448H12.6979C12.7641 20.2448 12.8177 20.1912 12.8177 20.125V13.4167C12.8177 12.9401 13.007 12.4831 13.344 12.1461C13.681 11.8091 14.138 11.6198 14.6146 11.6198C15.0911 11.6198 15.5482 11.8091 15.8852 12.1461C16.2221 12.4831 16.4115 12.9401 16.4115 13.4167V20.125C16.4115 20.1912 16.4651 20.2448 16.5312 20.2448H20.3646C20.4307 20.2448 20.4844 20.1912 20.4844 20.125V11.8644C20.4844 9.53877 18.4617 7.71937 16.1478 7.92973C15.4341 7.9946 14.7286 8.172 14.0697 8.45436L12.8177 8.99095V7.66667C12.8177 7.60051 12.7641 7.54688 12.6979 7.54688H8.86458Z" fill="#294FCD"/>
</svg>
