<svg width="20" height="20" viewBox="0 0 20 20" fill="none" xmlns="http://www.w3.org/2000/svg">
<path d="M7.29264 8.33333C7.29264 6.83756 8.50521 5.625 10.001 5.625C11.4967 5.625 12.7093 6.83756 12.7093 8.33333C12.7093 9.8291 11.4967 11.0417 10.001 11.0417C8.50521 11.0417 7.29264 9.8291 7.29264 8.33333Z" fill="white"/>
<path fill-rule="evenodd" clip-rule="evenodd" d="M3.1456 7.39782C3.43196 3.92371 6.33512 1.25 9.82102 1.25H10.181C13.6669 1.25 16.57 3.92371 16.8564 7.39782C17.0106 9.26832 16.4328 11.1257 15.2447 12.5786L11.2505 17.4634C10.6047 18.2532 9.39728 18.2532 8.75147 17.4634L4.75725 12.5786C3.5692 11.1257 2.99141 9.26832 3.1456 7.39782ZM10.001 4.375C7.81485 4.375 6.04264 6.14721 6.04264 8.33333C6.04264 10.5195 7.81485 12.2917 10.001 12.2917C12.1871 12.2917 13.9593 10.5195 13.9593 8.33333C13.9593 6.14721 12.1871 4.375 10.001 4.375Z" fill="white"/>
</svg>
