<svg width="65" height="59" viewBox="0 0 65 59" fill="none" xmlns="http://www.w3.org/2000/svg">
<g clip-path="url(#clip0_308_1857)">
<path d="M58.4306 46.108H52.6037C51.5893 46.108 50.767 45.2881 50.767 44.2769C50.767 43.2658 51.5893 42.4459 52.6037 42.4459H58.4306C60.0276 42.4459 61.3269 41.1506 61.3269 39.5583V6.09656C61.3269 4.50432 60.0276 3.20889 58.4306 3.20889H6.56944C4.97237 3.20901 3.67313 4.50432 3.67313 6.09656V39.5586C3.67313 41.1507 4.97237 42.4461 6.56944 42.4461H41.2787C42.293 42.4461 43.1153 43.266 43.1153 44.2772C43.1153 45.2884 42.293 46.1083 41.2787 46.1083H6.56944C2.94696 46.108 0 43.17 0 39.5586V6.09656C0 2.48529 2.94696 -0.453003 6.56944 -0.453003H58.4306C62.053 -0.453003 65 2.48529 65 6.09681V39.5588C65 43.17 62.053 46.108 58.4306 46.108Z" fill="#2242AA"/>
<path d="M16 32H27L28.5 27.5L33 25L40 32H49.5V27.5L45 25L44 18L40 15L32 17H22V22L16 27.5V32Z" fill="#CEE8FA"/>
<path d="M41.2788 53.6498H23.7214C22.707 53.6498 21.8848 52.8299 21.8848 51.8187V44.277C21.8848 43.266 22.707 42.4459 23.7214 42.4459H41.2786C42.293 42.4459 43.1153 43.2658 43.1153 44.277V51.8187C43.1153 52.83 42.293 53.6498 41.2788 53.6498ZM25.558 49.9878H39.4421V46.1081H25.558V49.9878Z" fill="#2242AA"/>
<path d="M46.7737 53.6498H18.2263C17.2119 53.6498 16.3896 52.8299 16.3896 51.8187C16.3896 50.8076 17.2119 49.9877 18.2263 49.9877H46.7736C47.788 49.9877 48.6102 50.8076 48.6102 51.8187C48.6102 52.8299 47.788 53.6498 46.7737 53.6498Z" fill="#2242AA"/>
<path d="M49.8351 35.7535H37.0629C36.3913 35.7535 35.7733 35.388 35.4514 34.8004C35.1294 34.2129 35.1545 33.4969 35.5175 32.9335C35.8876 32.3587 36.0832 31.6935 36.0832 31.0097C36.0832 29.04 34.476 27.4378 32.5002 27.4378C30.5244 27.4378 28.9172 29.0402 28.9172 31.0097C28.9172 31.6934 29.1128 32.3587 29.4829 32.9335C29.8459 33.4969 29.871 34.2129 29.5491 34.8004C29.2271 35.388 28.609 35.7535 27.9375 35.7535H15.1648C14.1504 35.7535 13.3281 34.9336 13.3281 33.9224V27.5532C13.3281 26.6537 13.9836 25.8872 14.8745 25.7453L17.6398 25.3042C18.2351 23.7678 19.0744 22.3207 20.1152 21.0358L19.114 18.4248C18.7919 17.5845 19.1296 16.6354 19.911 16.1854L25.916 12.7285C26.6976 12.2786 27.6908 12.4615 28.2598 13.1594L30.0266 15.3276C31.6608 15.0733 33.3378 15.073 34.9724 15.3277L36.7393 13.1594C37.3084 12.4613 38.3021 12.2788 39.0831 12.7285L45.0884 16.1854C45.8699 16.6353 46.2077 17.5847 45.8854 18.4248L44.8841 21.0362C45.9245 22.3214 46.7635 23.7683 47.3587 25.3043L50.125 25.7453C51.0159 25.8874 51.6714 26.6538 51.6714 27.5535V33.9227C51.6718 34.9336 50.8495 35.7535 49.8351 35.7535ZM39.6747 32.0915H47.9986V29.1146L45.6923 28.7468C44.9979 28.6361 44.428 28.14 44.2244 27.4689C43.6843 25.6878 42.7201 24.025 41.4363 22.6599C40.9555 22.1486 40.8095 21.4084 41.0605 20.7538L41.8956 18.5758L38.603 16.6803L37.1302 18.4873C36.6876 19.0305 35.973 19.2741 35.2896 19.1165C33.4644 18.6942 31.5342 18.6942 29.7103 19.1165C29.026 19.2743 28.3119 19.0305 27.8695 18.4873L26.3969 16.6803L23.1045 18.5758L23.9396 20.7538C24.1907 21.4086 24.0446 22.149 23.5635 22.6603C22.2793 24.0247 21.3151 25.6876 20.7748 27.4689C20.5713 28.14 20.0014 28.6361 19.307 28.7468L17.0015 29.1146V32.0915H25.3254C25.2715 31.7353 25.2441 31.3737 25.2441 31.0097C25.2441 27.0209 28.4993 23.7758 32.5002 23.7758C36.5011 23.7758 39.7563 27.0209 39.7563 31.0097C39.7561 31.3737 39.7287 31.7353 39.6747 32.0915Z" fill="#2242AA"/>
</g>
<defs>
<clipPath id="clip0_308_1857">
<rect width="65" height="59" fill="white"/>
</clipPath>
</defs>
</svg>
