<svg width="19" height="17" viewBox="0 0 19 17" fill="none" xmlns="http://www.w3.org/2000/svg">
<path fill-rule="evenodd" clip-rule="evenodd" d="M16.0571 15.2989L16.0577 15.2973L16.0738 15.2572L18.8374 1.32399V1.27873C18.8374 0.931579 18.7091 0.628513 18.43 0.446726C18.1857 0.287607 17.9048 0.276275 17.7079 0.291223C17.4996 0.307032 17.3032 0.359023 17.1672 0.4023C17.0972 0.424564 17.0387 0.446017 16.9968 0.462243C16.9758 0.470386 16.9588 0.477297 16.9464 0.482445L16.9342 0.487566L1.52583 6.53206L1.52159 6.53358C1.51327 6.53661 1.50226 6.54071 1.48897 6.54588C1.46247 6.5562 1.4264 6.57096 1.38403 6.59016C1.30083 6.62787 1.18588 6.68606 1.0693 6.7659C0.871294 6.90149 0.494269 7.22249 0.557932 7.7314C0.610665 8.15293 0.901238 8.42065 1.09713 8.55925C1.20214 8.63356 1.30261 8.68714 1.37617 8.72216C1.41345 8.7399 1.44511 8.7535 1.46869 8.7631C1.48052 8.76791 1.4904 8.77176 1.49805 8.77466L1.50784 8.77832L1.5141 8.78064L4.2099 9.6882C4.2008 9.85734 4.21758 10.0298 4.26243 10.2L5.61279 15.3224C5.7729 15.9298 6.32236 16.3528 6.95047 16.3524C7.51348 16.352 8.01281 16.0114 8.22494 15.5032L10.3332 13.249L13.954 16.0249L14.0055 16.0474C14.3345 16.191 14.6418 16.2364 14.9228 16.1981C15.2034 16.1597 15.4264 16.0421 15.5939 15.908C15.7587 15.7762 15.8717 15.6273 15.9428 15.5153C15.9788 15.4584 16.0058 15.4083 16.0244 15.3707C16.0338 15.3517 16.0412 15.3357 16.0467 15.3233L16.0537 15.3072L16.0561 15.3013L16.0571 15.2989ZM5.59907 9.84757C5.56838 9.73115 5.61656 9.60826 5.7182 9.54371L14.862 3.73701C14.862 3.73701 15.3998 3.4105 15.3806 3.73701C15.3806 3.73701 15.4766 3.79467 15.1884 4.06352C14.915 4.31886 8.67135 10.3469 8.03958 10.9568C8.00311 10.9921 7.98135 11.0324 7.9685 11.0815L6.94943 14.97L5.59907 9.84757Z" fill="white"/>
</svg>
