<svg width="20" height="20" viewBox="0 0 20 20" fill="none" xmlns="http://www.w3.org/2000/svg">
<path fill-rule="evenodd" clip-rule="evenodd" d="M13.8976 2.18954C11.2757 1.60349 8.55686 1.60349 5.93504 2.18954L5.65252 2.25269C4.14852 2.58888 2.96148 3.74244 2.58241 5.23619C1.91784 7.85493 1.91784 10.5982 2.58241 13.2169C2.94451 14.6438 4.04386 15.7603 5.45248 16.1504L5.8397 18.4636C5.86478 18.6133 5.96937 18.7376 6.11267 18.7879C6.25598 18.8382 6.4153 18.8065 6.52848 18.7053L8.80408 16.6692C10.5078 16.7732 12.2225 16.638 13.8976 16.2636L14.1801 16.2004C15.6841 15.8642 16.8711 14.7107 17.2502 13.2169C17.9148 10.5982 17.9148 7.85493 17.2502 5.23619C16.8711 3.74244 15.6841 2.58888 14.1801 2.25269L13.8976 2.18954ZM6.63792 5.16817C6.48312 5.14555 6.32525 5.17662 6.19058 5.25622H6.17909C5.86642 5.4395 5.58475 5.67114 5.34456 5.94255C5.14495 6.17333 5.03667 6.40684 5.00823 6.63161C4.99128 6.76559 5.00276 6.89958 5.04268 7.02755L5.0569 7.0363C5.28167 7.69692 5.57534 8.33239 5.93409 8.93067C6.39621 9.77119 6.96492 10.5485 7.62612 11.2434L7.64581 11.2718L7.67698 11.2948L7.69667 11.3178L7.71964 11.3375C8.41703 12.0006 9.19625 12.572 10.0384 13.0377C11.0009 13.5616 11.5849 13.8093 11.9355 13.9122V13.9176C12.0383 13.9488 12.1318 13.963 12.2259 13.963C12.5246 13.9411 12.8075 13.8198 13.0292 13.6185C13.2994 13.3782 13.5285 13.0954 13.7074 12.7812V12.7757C13.8753 12.4597 13.8184 12.1605 13.5761 11.9582C13.0909 11.5341 12.5663 11.1574 12.0093 10.8332C11.6364 10.6309 11.2574 10.7534 11.1037 10.9585L10.7761 11.3714C10.6082 11.5765 10.3031 11.548 10.3031 11.548L10.2943 11.5535C8.01878 10.9722 7.41175 8.66817 7.41175 8.66817C7.41175 8.66817 7.38331 8.35481 7.59386 8.19512L8.00401 7.86481C8.20034 7.70512 8.33706 7.32669 8.12651 6.95317C7.80462 6.39544 7.42876 5.87066 7.00432 5.38637C6.91154 5.2722 6.78136 5.19452 6.63683 5.16708L6.63792 5.16817ZM10.4834 4.16666C10.2532 4.16666 10.0667 4.35321 10.0667 4.58333C10.0667 4.81345 10.2532 4.99999 10.4834 4.99999C11.5371 4.99999 12.4127 5.34443 13.1044 6.00396C13.4605 6.36512 13.7376 6.79262 13.9196 7.26044C14.1023 7.73003 14.1854 8.23075 14.1641 8.73229C14.1543 8.9622 14.3327 9.15651 14.5626 9.16628C14.7926 9.17606 14.9869 8.99761 14.9966 8.7677C15.0229 8.15066 14.9206 7.53503 14.6963 6.95833C14.4719 6.38165 14.1305 5.85614 13.6929 5.41373L13.6845 5.40571C12.8262 4.58486 11.7383 4.16666 10.4834 4.16666ZM10.455 5.53693C10.2249 5.53693 10.0383 5.72348 10.0383 5.9536C10.0383 6.18372 10.2249 6.37027 10.455 6.37027H10.4686C11.229 6.42385 11.7822 6.6773 12.1701 7.09333C12.5672 7.5218 12.7729 8.054 12.7577 8.71247C12.7524 8.94252 12.9345 9.13334 13.1646 9.13867C13.3947 9.14399 13.5855 8.96181 13.5908 8.73175C13.6108 7.86718 13.3328 7.12165 12.7809 6.52637L12.7802 6.52559C12.2163 5.92051 11.4428 5.60042 10.5108 5.53787L10.4969 5.53693H10.455ZM10.4392 6.93223C10.2094 6.92013 10.0133 7.09662 10.0012 7.32642C9.98914 7.55622 10.1656 7.75231 10.3954 7.76441C10.7443 7.78277 10.9667 7.88741 11.1065 8.02861C11.247 8.17042 11.352 8.39748 11.3712 8.75351C11.3835 8.9833 11.5798 9.15956 11.8096 9.1472C12.0394 9.13484 12.2157 8.93854 12.2033 8.70876C12.1764 8.20874 12.0199 7.76668 11.6986 7.44223C11.3767 7.11718 10.9372 6.95844 10.4392 6.93223Z" fill="white"/>
</svg>
