<svg width="67" height="56" viewBox="0 0 67 56" fill="none" xmlns="http://www.w3.org/2000/svg">
<g clip-path="url(#clip0_308_1873)">
<path d="M45 26C45 37.598 35.598 47 24 47C17.3071 47 4.5 44 4.5 44C4.5 44 3 30.9051 3 26C3 14.402 12.402 5 24 5C35.598 5 45 14.402 45 26Z" fill="#CEE8FA"/>
<path d="M24.1894 50.4117C19.6389 50.4117 15.2363 49.1434 11.4028 46.7358L2.52689 48.7456C1.8845 48.8905 1.21333 48.6952 0.74786 48.2269C0.282525 47.7586 0.0878065 47.0827 0.232406 46.4365L2.41422 36.6774C0.833049 33.3909 0 29.7385 0 26.0676C0 12.6442 10.8512 1.72339 24.1894 1.72339C37.5277 1.72339 48.3789 12.644 48.3789 26.0676C48.3789 39.4911 37.5275 50.4117 24.1894 50.4117ZM11.7691 42.7404C12.148 42.7404 12.5218 42.8533 12.8413 43.0698C16.1996 45.345 20.1236 46.5475 24.1894 46.5475C35.4105 46.5475 44.5392 37.3602 44.5392 26.0676C44.5392 14.7749 35.4105 5.58762 24.1894 5.58762C12.9684 5.58762 3.83954 14.7747 3.83954 26.0676C3.83954 29.407 4.61344 32.5914 6.13978 35.5328C6.34994 35.9379 6.41066 36.4053 6.31107 36.8512L4.64445 44.3054L11.3476 42.7876C11.4871 42.7558 11.6285 42.7404 11.7691 42.7404Z" fill="#2242AA"/>
<path d="M44.7301 54.2766C43.4324 54.2766 42.1286 54.1626 40.8549 53.9375C39.8107 53.753 39.1126 52.7514 39.2958 51.7004C39.479 50.6493 40.4746 49.947 41.5187 50.1313C42.5738 50.3178 43.6543 50.4123 44.7301 50.4123C48.4122 50.4123 51.9662 49.3231 55.0075 47.2626C55.4456 46.9659 55.9862 46.864 56.5012 46.9805L62.3711 48.3096L60.9057 41.7551C60.8059 41.309 60.8666 40.8418 61.077 40.4364C62.4593 37.7726 63.1602 34.8887 63.1602 31.8642C63.1602 24.1665 58.5576 17.3829 51.4344 14.5818C50.4468 14.1934 49.9591 13.0728 50.3451 12.0791C50.7311 11.085 51.8441 10.5947 52.832 10.9826C56.9601 12.6058 60.4846 15.4066 63.0246 19.0816C65.6252 22.8447 67 27.2647 67 31.864C67 35.2241 66.242 38.5674 64.8023 41.5795L66.7834 50.4406C66.928 51.0868 66.7333 51.7625 66.268 52.231C65.8026 52.6996 65.1314 52.8954 64.4889 52.7497L56.4442 50.9281C52.9286 53.1215 48.8967 54.2766 44.7301 54.2766Z" fill="#2242AA"/>
<path d="M35.8363 28.5143H33.4047C32.3443 28.5143 31.4849 27.6493 31.4849 26.5821C31.4849 25.515 32.3443 24.65 33.4047 24.65H35.8363C36.8967 24.65 37.7562 25.515 37.7562 26.5821C37.756 27.6493 36.8965 28.5143 35.8363 28.5143Z" fill="#2242AA"/>
<path d="M25.5014 28.5143H23.0697C22.0094 28.5143 21.1499 27.6493 21.1499 26.5821C21.1499 25.515 22.0094 24.65 23.0697 24.65H25.5014C26.5617 24.65 27.4212 25.515 27.4212 26.5821C27.4212 27.6493 26.5617 28.5143 25.5014 28.5143Z" fill="#2242AA"/>
<path d="M15.1664 28.5143H12.7348C11.6744 28.5143 10.8149 27.6493 10.8149 26.5821C10.8149 25.515 11.6744 24.65 12.7348 24.65H15.1664C16.2268 24.65 17.0862 25.515 17.0862 26.5821C17.0861 27.6493 16.2266 28.5143 15.1664 28.5143Z" fill="#2242AA"/>
</g>
<defs>
<clipPath id="clip0_308_1873">
<rect width="67" height="56" fill="white"/>
</clipPath>
</defs>
</svg>
