<svg width="21" height="19" viewBox="0 0 21 19" fill="none" xmlns="http://www.w3.org/2000/svg">
<g clip-path="url(#clip0_612_107)">
<path d="M8.54969 13.0402C8.54969 13.9931 8.08923 15.5526 6.99965 15.5526C5.91007 15.5526 5.44961 13.9931 5.44961 13.0402C5.44961 12.0873 5.91007 10.5279 6.99965 10.5279C8.08923 10.5279 8.54969 12.0873 8.54969 13.0402ZM20.9635 10.7365C21.0223 12.2221 20.7698 13.7028 20.2248 15.0683C18.6243 18.5611 14.2229 18.4796 11.0732 18.4796C7.87213 18.4796 3.20848 18.6027 1.54435 15.0683C0.955649 13.7145 0.663035 12.2327 0.689101 10.7374C0.673134 8.8387 1.29593 6.99823 2.44187 5.55769C2.22496 4.8392 2.11511 4.08809 2.11643 3.33242C2.11735 2.49899 2.33075 1.68191 2.73325 0.970703C4.64648 0.970703 5.87149 1.38094 7.3296 2.61208C8.55769 2.30303 9.81504 2.15004 11.076 2.15621C12.2194 2.15173 13.3592 2.29254 14.472 2.57575C15.9084 1.35834 17.133 0.970703 19.0273 0.970703C19.4313 1.68115 19.6444 2.49881 19.6429 3.33242C19.6431 4.07902 19.5333 4.82089 19.3175 5.53022C20.4292 6.99521 21.0133 8.84441 20.9623 10.7374L20.9635 10.7365ZM18.2476 13.0402C18.2476 11.0387 17.1198 9.27458 15.143 9.27458C14.3496 9.30737 13.5593 9.39885 12.7775 9.54837C12.1469 9.6497 11.51 9.69843 10.8725 9.69412C10.235 9.69811 9.59809 9.64938 8.96746 9.54837C8.18582 9.39788 7.39541 9.3064 6.60198 9.27458C4.62514 9.27458 3.49739 11.0391 3.49739 13.0402C3.49739 17.0437 6.89336 17.6591 9.85021 17.6591H11.8861C14.8557 17.6591 18.2476 17.0482 18.2476 13.0402ZM14.7593 10.5279C13.6697 10.5279 13.2092 12.0873 13.2092 13.0402C13.2092 13.9931 13.6697 15.5526 14.7593 15.5526C15.8489 15.5526 16.3093 13.9931 16.3093 13.0402C16.3093 12.0873 15.8489 10.5279 14.7593 10.5279Z" fill="white"/>
</g>
<defs>
<clipPath id="clip0_612_107">
<rect width="20.2744" height="17.5097" fill="white" transform="translate(0.689453 0.970703)"/>
</clipPath>
</defs>
</svg>
