<svg width="22" height="19" viewBox="0 0 22 19" fill="none" xmlns="http://www.w3.org/2000/svg">
<g clip-path="url(#clip0_343_126)">
<path d="M8.52939 13.0968C8.52939 14.1308 8.02974 15.8229 6.84742 15.8229C5.66511 15.8229 5.16546 14.1308 5.16546 13.0968C5.16546 12.0627 5.66511 10.3706 6.84742 10.3706C8.02974 10.3706 8.52939 12.0627 8.52939 13.0968ZM21.9998 10.597C22.0636 12.209 21.7896 13.8157 21.1982 15.2975C19.4615 19.0875 14.6854 18.999 11.2676 18.999C7.79417 18.999 2.73359 19.1327 0.927824 15.2975C0.289018 13.8284 -0.0285007 12.2205 -0.000216336 10.598C-0.0175422 8.53765 0.658263 6.54053 1.90173 4.97738C1.66636 4.19775 1.54716 3.38271 1.5486 2.56272C1.54959 1.65836 1.78115 0.771739 2.21791 0C4.29398 0 5.62325 0.445147 7.20546 1.78107C8.53807 1.44572 9.90243 1.27971 11.2708 1.28641C12.5114 1.28154 13.7482 1.43434 14.9558 1.74165C16.5144 0.420631 17.8432 0 19.8988 0C20.3371 0.770917 20.5684 1.65817 20.5668 2.56272C20.567 3.37286 20.4478 4.17788 20.2136 4.94758C21.42 6.53726 22.0538 8.54384 21.9984 10.598L21.9998 10.597ZM19.0527 13.0968C19.0527 10.9249 17.8289 9.01063 15.6839 9.01063C14.823 9.0462 13.9653 9.14546 13.117 9.30771C12.4328 9.41767 11.7417 9.47055 11.0499 9.46587C10.3581 9.47019 9.66702 9.41732 8.98272 9.30771C8.13455 9.14442 7.27687 9.04515 6.41591 9.01063C4.27082 9.01063 3.04709 10.9253 3.04709 13.0968C3.04709 17.441 6.73209 18.1087 9.9406 18.1087H12.1498C15.3721 18.1087 19.0522 17.4458 19.0522 13.0968H19.0527ZM15.2675 10.3706C14.0852 10.3706 13.5855 12.0627 13.5855 13.0968C13.5855 14.1308 14.0852 15.8229 15.2675 15.8229C16.4498 15.8229 16.9494 14.1308 16.9494 13.0968C16.9494 12.0627 16.4494 10.3706 15.267 10.3706H15.2675Z" fill="#294FCD"/>
</g>
<defs>
<clipPath id="clip0_343_126">
<rect width="22" height="19" fill="white"/>
</clipPath>
</defs>
</svg>
