<svg width="20" height="20" viewBox="0 0 20 20" fill="none" xmlns="http://www.w3.org/2000/svg">
<path fill-rule="evenodd" clip-rule="evenodd" d="M5.59375 3.30905C8.52585 3.04689 11.4755 3.04689 14.4076 3.30905L15.6721 3.42211C16.9324 3.53479 17.9507 4.49761 18.1337 5.74963C18.5458 8.56824 18.5458 11.4318 18.1337 14.2504C17.9507 15.5024 16.9324 16.4652 15.6721 16.5779L14.4076 16.691C11.4755 16.9531 8.52585 16.9531 5.59375 16.691L4.32929 16.5779C3.06899 16.4652 2.0507 15.5024 1.86765 14.2504C1.45557 11.4318 1.45557 8.56824 1.86765 5.74963C2.0507 4.49761 3.06899 3.53479 4.32929 3.42211L5.59375 3.30905ZM4.88032 5.69972C4.68663 5.59543 4.45237 5.60064 4.26351 5.71344C4.07465 5.82625 3.959 6.03003 3.959 6.25002V14.1667C3.959 14.5119 4.23883 14.7917 4.584 14.7917C4.92918 14.7917 5.209 14.5119 5.209 14.1667V7.2964L9.70436 9.71698C9.88934 9.81658 10.112 9.81658 10.297 9.71698L14.7923 7.2964V14.1667C14.7923 14.5119 15.0722 14.7917 15.4173 14.7917C15.7625 14.7917 16.0423 14.5119 16.0423 14.1667V6.25002C16.0423 6.03003 15.9267 5.82625 15.7378 5.71344C15.549 5.60064 15.3147 5.59543 15.121 5.69972L10.0007 8.45683L4.88032 5.69972Z" fill="white"/>
</svg>
