<svg width="17" height="18" viewBox="0 0 17 18" fill="none" xmlns="http://www.w3.org/2000/svg">
<path d="M2.35446 0.137695C1.34429 0.137695 0.525391 0.988093 0.525391 2.03711C0.525391 3.08613 1.34429 3.93653 2.35446 3.93653C3.36463 3.93653 4.18353 3.08613 4.18353 2.03711C4.18353 0.988093 3.36463 0.137695 2.35446 0.137695Z" fill="white"/>
<path d="M0.632983 5.50076C0.573561 5.50076 0.525391 5.55078 0.525391 5.61249V17.2325C0.525391 17.2942 0.573561 17.3442 0.632983 17.3442H4.07594C4.13536 17.3442 4.18353 17.2942 4.18353 17.2325V5.61249C4.18353 5.55078 4.13536 5.50076 4.07594 5.50076H0.632983Z" fill="white"/>
<path d="M6.22778 5.50076C6.16836 5.50076 6.12019 5.55078 6.12019 5.61249V17.2325C6.12019 17.2942 6.16836 17.3442 6.22778 17.3442H9.67073C9.73015 17.3442 9.77833 17.2942 9.77833 17.2325V10.9755C9.77833 10.5311 9.94836 10.1048 10.251 9.79047C10.5537 9.47616 10.9642 9.29959 11.3922 9.29959C11.8202 9.29959 12.2307 9.47616 12.5334 9.79047C12.8361 10.1048 13.0061 10.5311 13.0061 10.9755V17.2325C13.0061 17.2942 13.0543 17.3442 13.1137 17.3442H16.5566C16.6161 17.3442 16.6642 17.2942 16.6642 17.2325V9.52774C16.6642 7.35861 14.8475 5.66164 12.7693 5.85785C12.1283 5.91835 11.4946 6.08382 10.9029 6.34718L9.77833 6.84765V5.61249C9.77833 5.55078 9.73015 5.50076 9.67073 5.50076H6.22778Z" fill="white"/>
</svg>
