<svg width="17" height="17" viewBox="0 0 17 17" fill="none" xmlns="http://www.w3.org/2000/svg">
<path d="M8.49952 0C5.10033 0 2.35547 2.74486 2.35547 6.14405C2.35547 7.32924 2.73407 8.46093 3.26082 9.39093L7.26495 16.3209C7.51597 16.7736 8.02215 17 8.49952 17C8.97692 17 9.45837 16.7736 9.73409 16.3209L13.7382 9.39504C14.2691 8.46496 14.6436 7.35385 14.6436 6.14808C14.6436 2.74898 11.8987 0 8.49952 0ZM8.49952 7.95887C7.26495 7.95887 6.25671 6.95063 6.25671 5.71606C6.25671 4.48149 7.26495 3.47326 8.49952 3.47326C9.73409 3.47326 10.7423 4.48149 10.7423 5.71606C10.7423 6.95475 9.73409 7.95887 8.49952 7.95887Z" fill="#294FCD"/>
</svg>
