<svg width="14" height="12" viewBox="0 0 14 12" fill="none" xmlns="http://www.w3.org/2000/svg">
<path d="M11.6647 10.4949H2.34706C1.98917 10.4887 1.64842 10.3422 1.39927 10.0877C1.15012 9.83318 1.01289 9.49128 1.0177 9.13681V2.3581C1.01289 2.00363 1.15012 1.66172 1.39927 1.40719C1.64842 1.15265 1.98917 1.00624 2.34706 1H11.6647C11.8425 1.00232 12.0179 1.03928 12.1812 1.10879C12.3445 1.1783 12.4925 1.27899 12.6165 1.40511C12.7405 1.53122 12.8382 1.6803 12.904 1.84382C12.9699 2.00734 13.0025 2.18208 13.0001 2.3581V9.14866C13.0017 9.5021 12.8623 9.84186 12.6122 10.094C12.3621 10.3461 12.0216 10.4902 11.6647 10.4949Z" fill="#EAEBEF" stroke="#294FCD" stroke-width="1.2" stroke-miterlimit="10"/>
<path d="M1 3.37207L6.99418 5.74432L12.9824 3.37207" fill="#EAEBEF"/>
<path d="M1 3.37207L6.99418 5.74432L12.9824 3.37207" stroke="#294FCD" stroke-width="1.2" stroke-linejoin="round"/>
</svg>
