<svg width="67" height="57" viewBox="0 0 67 57" fill="none" xmlns="http://www.w3.org/2000/svg">
<path d="M58.9007 44C57.7414 44 57 43.0937 57 41.976V33C57 31.94 55.5993 30.5 54.5 30.5H12.1927C11.0933 30.5 9.5 31.9104 9.5 32.9704V41.976C9.5 43.0936 8.70367 44 8 44C6.84058 44 6 43.0937 6 41.976V32.9704C6 29.6782 8.77793 27 12.1927 27H54.8073C58.2219 27 61 29.6782 61 32.9704V41.976C60.9999 43.0938 60.0598 44 58.9007 44Z" fill="#2242AA"/>
<path d="M33 36C31.8954 36 31 35.2444 31 34.3126V20.6874C31 19.7556 31.8954 19 33 19C34.1044 19 35 19.7556 35 20.6874V34.3126C35 35.2446 34.1044 36 33 36Z" fill="#2242AA"/>
<path d="M7.76604 56.4107C3.48388 56.4107 0 52.927 0 48.6447C0 44.3624 3.48388 40.8788 7.76604 40.8788C12.0482 40.8788 15.5321 44.3624 15.5321 48.6447C15.5321 52.927 12.0481 56.4107 7.76604 56.4107ZM7.76604 45.1155C5.81987 45.1155 4.23663 46.6988 4.23663 48.6447C4.23663 50.5906 5.81987 52.1741 7.76604 52.1741C9.71222 52.1741 11.2955 50.5906 11.2955 48.6447C11.2955 46.6988 9.71195 45.1155 7.76604 45.1155Z" fill="#2242AA"/>
<path d="M40.0452 56.4107H28.7497C27.5798 56.4107 26.6313 55.4622 26.6313 54.2924V42.9972C26.6313 41.8273 27.5798 40.8788 28.7497 40.8788H40.0452C41.215 40.8788 42.0001 41.5 42.0001 43C42.0001 44 41.1699 44.5 40.0001 44.5H30.5001V53H38.0001L37.9269 49.2804C37.9269 48.1106 38.8755 47.162 40.0453 47.162C41.2151 47.162 42.1637 48.1106 42.1637 49.2804V54.2925C42.1634 55.4624 41.2149 56.4107 40.0452 56.4107Z" fill="#2242AA"/>
<path d="M59.0287 56.4107C54.7465 56.4107 51.2627 52.9269 51.2627 48.6447C51.2627 44.3625 54.7466 40.8788 59.0287 40.8788C63.3109 40.8788 66.7948 44.3624 66.7948 48.6447C66.7948 52.927 63.3109 56.4107 59.0287 56.4107ZM59.0287 45.1155C57.0826 45.1155 55.4993 46.6988 55.4993 48.6447C55.4993 50.5906 57.0828 52.1741 59.0287 52.1741C60.9747 52.1741 62.5582 50.5906 62.5582 48.6447C62.558 46.6988 60.9747 45.1155 59.0287 45.1155Z" fill="#2242AA"/>
<path d="M27.7497 51.3989H13.4138C12.2438 51.3989 11.2954 50.4503 11.2954 49.2805C11.2954 48.1108 12.2438 47.1621 13.4138 47.1621H27.7497C28.9196 47.1621 29.8681 48.1107 29.8681 49.2805C29.8681 50.4502 28.9198 51.3989 27.7497 51.3989Z" fill="#2242AA"/>
<path d="M46.1367 51H39.8633C38.8345 51 38 50.1044 38 49C38 47.8957 38.8343 47 39.8633 47H46.1367C47.1656 47 48 47.8956 48 49C47.9999 50.1043 47.1656 51 46.1367 51Z" fill="#2242AA"/>
<rect x="20" y="2" width="26" height="17" rx="2.5" fill="#CEE8FA" stroke="#2242AA" stroke-width="4"/>
</svg>
