<svg width="15" height="19" viewBox="0 0 15 19" fill="none" xmlns="http://www.w3.org/2000/svg">
<path d="M0.434247 14.9016L1.78179 13.2346C2.23778 12.6682 3.04372 12.4564 3.74595 12.7309L5.62961 13.4685C5.88615 13.5729 6.17721 13.4791 6.32063 13.2561L8.36399 10.3971L10.1243 7.3312C10.2674 7.10822 10.2215 6.81979 10.0058 6.65172L8.44936 5.40441C7.8699 4.9391 7.69783 4.16319 8.01892 3.51904L8.96174 1.61844C9.3718 0.76371 10.4962 0.452124 11.3394 0.93863L13.1606 1.98949C13.5654 2.22301 13.8408 2.622 13.947 3.03251C14.6004 6.33436 13.8326 9.7983 12.0944 12.5059C10.3562 15.2135 7.49062 17.4453 4.0698 18.4181C3.61594 18.5491 3.13599 18.4684 2.73127 18.2348L0.91009 17.1842C0.0193809 16.7358 -0.178174 15.6396 0.434247 14.9016Z" fill="#294FCD"/>
</svg>
