<svg width="24" height="24" viewBox="0 0 24 24" fill="none" xmlns="http://www.w3.org/2000/svg">
<path fill-rule="evenodd" clip-rule="evenodd" d="M18.4823 19.79L18.483 19.7883L18.5004 19.7448L21.4992 4.62568V4.57657C21.4992 4.19987 21.36 3.87101 21.0571 3.67375C20.792 3.50109 20.4873 3.48879 20.2736 3.50501C20.0476 3.52217 19.8344 3.57858 19.6869 3.62554C19.611 3.6497 19.5475 3.67298 19.502 3.69059C19.4792 3.69943 19.4608 3.70692 19.4473 3.71251L19.4341 3.71807L2.71429 10.277L2.70968 10.2787C2.70065 10.2819 2.68871 10.2864 2.67429 10.292C2.64553 10.3032 2.60639 10.3192 2.56041 10.3401C2.47013 10.381 2.3454 10.4441 2.21889 10.5307C2.00404 10.6779 1.59493 11.0262 1.66401 11.5784C1.72123 12.0358 2.03653 12.3263 2.2491 12.4767C2.36305 12.5574 2.47206 12.6155 2.55189 12.6535C2.59234 12.6728 2.6267 12.6875 2.65228 12.6979C2.66511 12.7032 2.67584 12.7073 2.68414 12.7105L2.69476 12.7144L2.70156 12.717L5.6268 13.7018C5.61692 13.8853 5.63513 14.0724 5.6838 14.2571L7.14908 19.8155C7.32282 20.4745 7.91905 20.9336 8.60062 20.9331C9.21155 20.9327 9.75337 20.5631 9.98356 20.0117L12.2712 17.5656L16.2002 20.5778L16.2561 20.6022C16.6131 20.758 16.9466 20.8073 17.2515 20.7657C17.556 20.7241 17.798 20.5964 17.9797 20.451C18.1586 20.3079 18.2812 20.1464 18.3582 20.0248C18.3974 19.963 18.4266 19.9087 18.4469 19.8679C18.457 19.8473 18.465 19.83 18.4711 19.8164L18.4786 19.799L18.4813 19.7926L18.4823 19.79ZM7.1342 13.8747C7.1009 13.7484 7.15318 13.615 7.26346 13.545L17.1855 7.24407C17.1855 7.24407 17.7691 6.88978 17.7482 7.24407C17.7482 7.24407 17.8524 7.30664 17.5396 7.59837C17.243 7.87544 10.468 14.4165 9.78242 15.0784C9.74285 15.1166 9.71923 15.1604 9.70529 15.2136L8.59948 19.4331L7.1342 13.8747Z" fill="#294FCD"/>
</svg>
